<?xml version="1.0" encoding="UTF-8" standalone="no"?>
<!-- Created with Inkscape (http://www.inkscape.org/) -->

<svg
   xmlns:dc="http://purl.org/dc/elements/1.1/"
   xmlns:cc="http://creativecommons.org/ns#"
   xmlns:rdf="http://www.w3.org/1999/02/22-rdf-syntax-ns#"
   xmlns:svg="http://www.w3.org/2000/svg"
   xmlns="http://www.w3.org/2000/svg"
   version="1.1"
   width="600"
   height="600"
   viewBox="0 0 600 600"
   id="Layer_1"
   xml:space="preserve"
   style="overflow:visible"><metadata
     id="metadata20"><rdf:RDF><cc:Work
         rdf:about=""><dc:format>image/svg+xml</dc:format><dc:type
           rdf:resource="http://purl.org/dc/dcmitype/StillImage" /><dc:title></dc:title></cc:Work></rdf:RDF></metadata><defs
     id="defs18" /><path
     d="M 300,300"
     id="path7" /><path
     d="m 300,10.00293 c 23.56445,20.075195 54.11719,32.191406 87.5,32.191406 33.38281,0 63.93555,-12.119141 87.5,-32.194336 l 115,115 c -21.16211,30.08105 -33.58789,66.75391 -33.58789,106.32617 0,28.46387 6.42676,55.42481 17.91016,79.5127 C 584.24414,331.66406 590,355.39453 590,380 590,468.36719 518.36719,540 430,540 H 404.88672 C 362.54199,540 324.75098,559.49512 300,590 275.24854,559.49512 237.45801,540 195.11328,540 H 169.99951 C 81.632813,540 9.9995117,468.36719 9.9995117,380 c 0,-24.60547 5.7563473,-48.33594 15.6787113,-69.16113 11.482422,-24.08789 17.910156,-51.04883 17.910156,-79.5127 C 43.588379,191.75391 31.161621,155.08105 10,125 L 125,10 c 23.56445,20.075195 54.1167,32.194336 87.5,32.194336 33.38281,0 63.93555,-12.116211 87.5,-32.191406 z"
     id="path11"
     style="fill:#ffffff;fill-opacity:1;fill-rule:evenodd" /><g
     id="g3886"><path
       d="M 0,50 C 0,22.385742 22.385254,0 50,0 h 500 c 27.61426,0 50,22.385742 50,50 v 500 c 0,27.61523 -22.38574,50 -50,50 H 50 C 22.385254,600 0,577.61523 0,550 V 50 l 0,0 z"
       id="path5" /><path
       d="m 300,10.00293 c 23.56445,20.075195 54.11719,32.191406 87.5,32.191406 33.38281,0 63.93555,-12.119141 87.5,-32.194336 l 115,115 c -21.16211,30.08105 -33.58789,66.75391 -33.58789,106.32617 0,28.46387 6.42676,55.42481 17.91016,79.5127 C 584.24414,331.66406 590,355.39453 590,380 590,468.36719 518.36719,540 430,540 H 404.88672 C 362.54199,540 324.75098,559.49512 300,590 275.24854,559.49512 237.45801,540 195.11328,540 H 169.99951 C 81.632813,540 9.9995117,468.36719 9.9995117,380 c 0,-24.60547 5.7563473,-48.33594 15.6787113,-69.16113 11.482422,-24.08789 17.910156,-51.04883 17.910156,-79.5127 C 43.588379,191.75391 31.161621,155.08105 10,125 L 125,10 c 23.56445,20.075195 54.1167,32.194336 87.5,32.194336 33.38281,0 63.93555,-12.116211 87.5,-32.191406 z"
       id="path13"
       style="fill:#ffffff;fill-opacity:1;fill-rule:evenodd;stroke:#000000;stroke-linecap:round;stroke-linejoin:round;stroke-miterlimit:3.863693" /></g><g
     id="text1343"
     style="font-size:447.76119995px;font-style:normal;font-variant:normal;font-weight:normal;font-stretch:normal;text-align:center;line-height:125%;writing-mode:lr-tb;text-anchor:middle;font-family:Roadgeek 2005 Series D"><path
       d="m 277.30436,351.08209 c -2.3e-4,12.83589 -2.68679,24.92543 -8.0597,36.26866 -5.07485,11.04481 -12.23902,20.74629 -21.49254,29.10447 -8.95541,8.05972 -19.70167,14.47762 -32.2388,19.25374 -12.53747,4.77611 -25.9703,7.16417 -40.29851,7.16417 -14.32848,0 -27.7613,-2.38806 -40.29851,-7.16417 -12.53739,-5.07462 -23.4329,-11.94029 -32.68657,-20.59702 -8.955269,-8.65669 -16.119441,-18.80593 -21.492533,-30.44776 -5.074659,-11.64173 -7.61197,-24.17903 -7.61194,-37.61194 -3e-5,-20.89541 2.686535,-41.64166 8.059701,-62.23881 5.671599,-20.59684 13.582039,-40.29831 23.731342,-59.10448 10.14918,-18.80574 22.23872,-36.11915 36.26866,-51.9403 14.32825,-16.11912 30.14913,-29.9997 47.46269,-41.64179 l 24.1791,40.29851 c -9.25389,7.16444 -17.46284,14.17936 -24.62686,21.04478 -6.86581,6.5674 -13.28372,13.43306 -19.25374,20.59701 -5.67176,7.1644 -10.89563,14.77633 -15.67164,22.83582 -4.77622,7.76139 -9.40308,16.4181 -13.8806,25.97015 8.65662,-1.49236 15.22377,-2.38788 19.7015,-2.68657 4.776,-0.29833 10.14913,-0.44758 16.1194,-0.44776 13.7312,1.8e-4 26.71626,2.38824 38.95522,7.16418 12.53714,4.77629 23.43265,11.34345 32.68657,19.7015 9.55203,8.05984 17.01471,17.76132 22.38806,29.10447 5.37291,11.04489 8.05947,22.83592 8.0597,35.37314 m -47.46268,-0.89552 c -1.9e-4,-5.67155 -1.49273,-11.19394 -4.47762,-16.56717 -2.68674,-5.37302 -6.56733,-9.99988 -11.64179,-13.8806 -4.77628,-3.88047 -10.59717,-7.0148 -17.46268,-9.40298 -6.56731,-2.38793 -13.58223,-3.58196 -21.04478,-3.58209 -7.46281,1.3e-4 -14.47773,1.19416 -21.04478,3.58209 -6.26876,2.38818 -11.94039,5.52251 -17.01492,9.40298 -4.77621,3.88072 -8.6568,8.50758 -11.64179,13.8806 -2.68665,5.37323 -4.02993,10.89562 -4.02985,16.56717 -8e-5,5.97023 1.3432,11.64186 4.02985,17.01492 2.98499,5.3732 6.86558,10.14932 11.64179,14.32836 5.07453,3.88065 10.74616,7.01497 17.01492,9.40299 6.56705,2.3881 13.58197,3.58213 21.04478,3.58208 7.46255,5e-5 14.47747,-1.19398 21.04478,-3.58208 6.567,-2.38802 12.23864,-5.52234 17.01492,-9.40299 5.07445,-4.17904 9.1043,-8.95516 12.08955,-14.32836 2.98489,-5.37306 4.47743,-11.04469 4.47762,-17.01492"
       id="path4684"
       style="letter-spacing:-13.84615421" /><path
       d="m 526.69282,227.94776 c -2.3e-4,20.5972 -2.83605,41.1942 -8.50746,61.79104 -5.37336,20.29864 -13.13454,39.85086 -23.28358,58.65672 -10.14945,18.80604 -22.38824,36.26871 -36.71642,52.38806 -14.32851,16.11943 -30.14939,30.14926 -47.46269,42.08955 l -22.83582,-40.2985 c 8.95512,-7.16414 16.86556,-14.02981 23.73134,-20.59702 7.16406,-6.86561 13.58196,-13.88053 19.25374,-21.04478 5.67149,-7.16409 10.89537,-14.77602 15.67164,-22.83582 4.77596,-8.05959 9.40282,-17.01481 13.88059,-26.86567 -8.65687,1.49266 -15.37328,2.53744 -20.14925,3.13433 -4.47775,0.59714 -9.70163,0.89564 -15.67164,0.89552 -14.02997,1.2e-4 -27.31354,-2.38793 -39.85075,-7.16418 -12.23888,-4.77598 -22.98514,-11.19389 -32.2388,-19.25373 -9.25379,-8.35805 -16.56721,-18.05953 -21.9403,-29.10448 -5.37317,-11.34309 -8.05973,-23.28338 -8.05971,-35.82089 -2e-5,-12.8356 2.68654,-24.77588 8.05971,-35.8209 5.37309,-11.34302 12.53726,-21.0445 21.49253,-29.10448 9.25367,-8.35792 19.99993,-14.92508 32.23881,-19.70149 12.53721,-4.77582 25.97003,-7.16387 40.29851,-7.16418 14.32821,3.1e-4 27.76103,2.53762 40.29851,7.61194 12.53713,4.77641 23.28338,11.49283 32.2388,20.14926 9.25352,8.35847 16.41769,18.35846 21.49254,30 5.3729,11.64202 8.05947,24.32858 8.0597,38.0597 m -47.46269,-4.02985 c -1.8e-4,-5.67142 -1.49272,-11.19381 -4.47761,-16.56717 -2.98525,-5.3729 -7.0151,-9.99976 -12.08955,-13.88059 -4.77628,-3.88035 -10.44792,-7.01468 -17.01493,-9.40299 -6.56731,-2.3878 -13.58222,-3.58183 -21.04477,-3.58209 -7.46281,2.6e-4 -14.47773,1.19429 -21.04478,3.58209 -6.26876,2.0898 -11.9404,5.07488 -17.01492,8.95522 -4.77621,3.88084 -8.6568,8.5077 -11.64179,13.8806 -2.68665,5.37336 -4.02993,11.045 -4.02986,17.01493 -7e-5,5.97035 1.34321,11.64199 4.02986,17.01492 2.98499,5.07482 6.86558,9.55243 11.64179,13.43284 5.07452,3.88078 10.74616,7.0151 17.01492,9.40298 6.56705,2.08973 13.58197,3.1345 21.04478,3.13433 7.46255,1.7e-4 14.47746,-1.0446 21.04477,-3.13433 6.86552,-2.38788 12.68641,-5.5222 17.46269,-9.40298 5.07445,-3.88041 8.95505,-8.35802 11.64179,-13.43284 2.98489,-5.37293 4.47743,-11.04457 4.47761,-17.01492"
       id="path4686"
       style="letter-spacing:-13.84615421" /></g></svg>